<svg width="409" height="304" viewBox="0 0 409 304" fill="none" xmlns="http://www.w3.org/2000/svg">
<path d="M53.5 94C74.763 94 92 76.763 92 55.5C92 34.237 74.763 17 53.5 17C32.237 17 15 34.237 15 55.5C15 76.763 32.237 94 53.5 94Z" fill="#6B7280"/>
<path d="M370.5 94C391.763 94 409 76.763 409 55.5C409 34.237 391.763 17 370.5 17C349.237 17 332 34.237 332 55.5C332 76.763 349.237 94 370.5 94Z" fill="#6B7280"/>
<path d="M180.425 30.6404L24.9827 222.596C11.6015 239.12 14.1496 263.363 30.674 276.744C47.1985 290.126 71.4418 287.578 84.823 271.053L240.265 79.0981C253.646 62.5737 251.098 38.3304 234.574 24.9492C218.049 11.568 193.806 14.116 180.425 30.6404Z" fill="#6B7280"/>
<path d="M268.671 118.92L182.76 225.012C169.379 241.536 171.927 265.779 188.451 279.16C204.976 292.542 229.219 289.994 242.6 273.469L328.511 167.378C341.893 150.853 339.345 126.61 322.82 113.229C306.296 99.8477 282.052 102.396 268.671 118.92Z" fill="#6B7280"/>
</svg>
